<svg xmlns="http://www.w3.org/2000/svg" viewBox="0 0 32 32">
  <defs></defs>
  <circle cx="6.626" cy="23.74" r="2" style="fill: rgb(0, 123, 255);" transform="matrix(1.519095, 0, 0, 1.432579, -3.396262, -11.134605)"></circle>
  <circle cx="23.99" cy="23.74" r="2" style="fill: rgb(0, 123, 255);" transform="matrix(1.50828, 0, 0, 1.410949, -12.301781, -10.577852)"></circle>
  <text style="fill: rgb(255, 193, 7); font-family: Arial; font-size: 8.31682px; stroke-width: 0.177256px; text-anchor: middle; white-space: pre; transform-box: fill-box; transform-origin: 2.56814px 3.74019px;" transform="matrix(1.245757, -3.095229, 3.007431, -0.044669, -1.249195, 3.31382)" x="11.892" y="12.861" dx="0.451" dy="-2.121">P</text>
  <path style="stroke-width: 0.5px; fill: rgb(0, 123, 255);" d="M 1.882 16.991 L 0.887 23.479 L 3.309 23.696 L 4.088 19.759 L 9.322 19.846 L 10.057 24.128 L 20.396 24.301 L 21.478 19.889 L 26.539 19.932 L 27.49 24.258 L 31.038 24.388 L 31.038 16.255 L 29.826 15.001 L 29.134 4.532 L 27.966 3.494 L 21.261 3.321 L 21.131 16.515 L 1.882 16.991 Z"></path>
  <path style="fill: rgb(20, 149, 35);" d="M 22.689 13.823 L 28.788 13.91 L 28.226 5.345 L 22.472 5.128 L 22.689 13.823 Z"></path>
</svg>